<svg xmlns="http://www.w3.org/2000/svg" x="0px" y="0px" viewBox="0 0 56.7 49.5" enable-background="new 0 0 56.7 49.5"><path id="logo__mark__icon" class="c-1a1a1a _m32ct8" fill="currentColor" d="M28.4,5.9c1,0,1.9-0.8,1.9-1.9c0-1-0.8-1.9-1.9-1.9c-1,0-1.9,0.8-1.9,1.9C26.5,5.1,27.3,5.9,28.4,5.9z M28.4,43.6c-1,0-1.9,0.8-1.9,1.9c0,1,0.8,1.9,1.9,1.9c1,0,1.9-0.8,1.9-1.9C30.3,44.5,29.4,43.6,28.4,43.6z M10.9,33.3 c-0.5-0.1-1-0.1-1.4,0.2c-0.4,0.3-0.7,0.7-0.9,1.1c-0.1,0.5-0.1,1,0.2,1.4c0.4,0.6,1,0.9,1.6,0.9c0.3,0,0.6-0.1,0.9-0.3 c0.4-0.3,0.8-0.7,0.9-1.1c0.1-0.5,0.1-1-0.2-1.4C11.8,33.7,11.4,33.4,10.9,33.3z M46.8,12.6c-0.5-0.1-1-0.1-1.4,0.2 c-0.9,0.5-1.2,1.7-0.7,2.6c0.3,0.4,0.7,0.7,1.1,0.9c0.2,0,0.3,0.1,0.5,0.1c0.3,0,0.6-0.1,0.9-0.3c0.4-0.3,0.8-0.7,0.9-1.1 c0.1-0.5,0.1-1-0.2-1.4C47.7,13,47.3,12.7,46.8,12.6z M47.3,33.5c-0.4-0.3-0.9-0.3-1.4-0.2c-0.3,0.1-0.6,0.3-0.8,0.5l-3.4-2 c0.2-0.5,0.2-1,0.1-1.5c-0.2-0.7-0.6-1.2-1.2-1.6c-1.3-0.7-2.9-0.3-3.6,1c-0.4,0.6-0.4,1.3-0.3,2c0,0.1,0,0.1,0.1,0.2l-6.3,3.6 c-0.5-0.6-1.2-0.9-2-0.9c-0.8,0-1.5,0.4-2,0.9l-6.3-3.6c0-0.1,0-0.1,0.1-0.2c0.2-0.7,0.1-1.4-0.3-2c-0.4-0.6-0.9-1-1.6-1.2 c-0.1,0-0.1,0-0.2,0v-7.3c0.1,0,0.1,0,0.2,0c0.7-0.2,1.2-0.6,1.6-1.2c0.4-0.6,0.4-1.3,0.3-2c0-0.1,0-0.1-0.1-0.2l6.3-3.6 c0.5,0.6,1.2,0.9,2,0.9c1.5,0,2.6-1.2,2.6-2.6s-1.2-2.6-2.6-2.6s-2.6,1.2-2.6,2.6c0,0.3,0.1,0.6,0.2,0.9l-6.3,3.6 c-0.2-0.2-0.4-0.4-0.7-0.6c-0.6-0.4-1.3-0.4-2-0.3c-0.7,0.2-1.2,0.6-1.6,1.2c-0.7,1.3-0.3,2.9,1,3.6l0,0c0.3,0.1,0.5,0.2,0.8,0.3 v7.3c-0.3,0.1-0.6,0.1-0.8,0.3c-0.6,0.4-1,0.9-1.2,1.6c-0.2,0.7-0.1,1.4,0.3,2c0.4,0.6,0.9,1,1.6,1.2c0.2,0.1,0.5,0.1,0.7,0.1 c0.5,0,0.9-0.1,1.3-0.4c0.3-0.1,0.5-0.3,0.7-0.6l6.3,3.6c-0.1,0.3-0.2,0.6-0.2,0.9c0,1.5,1.2,2.6,2.6,2.6s2.6-1.2,2.6-2.6 c0-0.3-0.1-0.6-0.2-0.9l6.3-3.6c0.2,0.2,0.4,0.4,0.7,0.6l0,0c0.4,0.2,0.9,0.4,1.3,0.4c0.7,0,1.5-0.3,2-0.9l3.4,2 c-0.1,0.3-0.1,0.6,0,1c0.1,0.5,0.4,0.9,0.9,1.1c0.3,0.2,0.6,0.3,0.9,0.3c0.2,0,0.3,0,0.5-0.1c0.5-0.1,0.9-0.4,1.1-0.9 c0.3-0.4,0.3-0.9,0.2-1.4C48,34.2,47.7,33.7,47.3,33.5z M9.5,16c0.3,0.2,0.6,0.3,0.9,0.3c0.2,0,0.3,0,0.5-0.1 c0.5-0.1,0.9-0.4,1.1-0.9c0.5-0.9,0.2-2.1-0.7-2.6c-0.9-0.5-2.1-0.2-2.6,0.7c-0.3,0.4-0.3,0.9-0.2,1.4C8.7,15.4,9,15.8,9.5,16z M15.7,2.8c0.7-0.4,0.9-1.3,0.5-2c-0.4-0.7-1.3-0.9-2-0.5c-0.7,0.4-0.9,1.3-0.5,2C14.1,2.9,15,3.2,15.7,2.8z M41.1,46.8 c-0.7,0.4-0.9,1.3-0.5,2c0.4,0.7,1.3,0.9,2,0.5c0.7-0.4,0.9-1.3,0.5-2C42.7,46.6,41.8,46.4,41.1,46.8z M15.7,46.8 c-0.7-0.4-1.6-0.2-2,0.5c-0.4,0.7-0.2,1.6,0.5,2c0.7,0.4,1.6,0.2,2-0.5C16.6,48.1,16.4,47.2,15.7,46.8z M41.1,2.8 c0.7,0.4,1.6,0.2,2-0.5c0.4-0.7,0.2-1.6-0.5-2c-0.7-0.4-1.6-0.2-2,0.5C40.1,1.4,40.4,2.3,41.1,2.8z M55.3,23.3 c-0.8,0-1.5,0.7-1.5,1.5c0,0.8,0.7,1.5,1.5,1.5c0.8,0,1.5-0.7,1.5-1.5C56.7,24,56.1,23.3,55.3,23.3z M1.5,23.3C0.7,23.3,0,24,0,24.8 c0,0.8,0.7,1.5,1.5,1.5s1.5-0.7,1.5-1.5C2.9,24,2.3,23.3,1.5,23.3z M39.1,21.2c0.4,0,0.9-0.1,1.3-0.4c1.3-0.7,1.7-2.3,1-3.6 c-0.7-1.3-2.3-1.7-3.6-1l0,0c-0.6,0.4-1,0.9-1.2,1.6c-0.2,0.7-0.1,1.4,0.3,2C37.3,20.7,38.2,21.2,39.1,21.2z"/></svg>